<?xml version="1.0" encoding="UTF-8"?>
<svg version="1.1" xmlns="http://www.w3.org/2000/svg" width="2560" height="823">
<path d="M0 0 C1.57870602 1.50400385 3.14296613 3.02342385 4.6875 4.5625 C5.25210937 5.10390625 5.81671875 5.6453125 6.3984375 6.203125 C19.53622868 19.96652528 22.1668216 39.50216988 21.89233398 57.60351562 C21.83803939 59.92393859 21.77164571 62.24299112 21.6875 64.5625 C22.45707031 64.51609375 23.22664063 64.4696875 24.01953125 64.421875 C75.76227593 62.79584037 132.26013309 85.98304418 171.6875 118.5625 C172.47447266 119.20735352 172.47447266 119.20735352 173.27734375 119.86523438 C227.33018251 164.26115111 261.36440033 225.69876035 268.6875 295.5625 C269.20273909 300.89240059 269.50925107 306.20946196 269.6875 311.5625 C269.72875 312.77035156 269.77 313.97820312 269.8125 315.22265625 C270.51128703 357.45559738 260.8845115 400.53397635 240.67626953 437.74121094 C239.66035867 439.61249366 238.67230967 441.49704336 237.68359375 443.3828125 C229.17756642 459.31271589 217.69645127 480.08139992 202.84375 490.90625 C200.77800249 493.86529373 201.66545777 497.53953951 201.875 501 C202.18207961 512.04165833 198.86215861 519.18982399 191.5625 527.5 C189.9427994 529.19258713 188.31742344 530.87975497 186.6875 532.5625 C185.77700697 533.56517379 184.87092312 534.57186495 183.96875 535.58203125 C172.80740516 548.03664455 160.66518437 559.24588147 147.32226562 569.32617188 C145.7644868 570.50427701 144.21786349 571.69708985 142.671875 572.890625 C129.65863043 582.84192967 115.91435219 591.46868136 101.6875 599.5625 C101.09598145 599.90490723 100.50446289 600.24731445 99.89501953 600.60009766 C82.33116313 610.72360446 63.30056775 617.95927858 44.0625 624.1875 C43.39992188 624.40363953 42.73734375 624.61977905 42.0546875 624.84246826 C30.32177236 628.64522117 30.32177236 628.64522117 24.8515625 629.2109375 C23.80742187 629.32695313 22.76328125 629.44296875 21.6875 629.5625 C21.3575 630.2225 21.0275 630.8825 20.6875 631.5625 C18.37792969 632.125 18.37792969 632.125 15.359375 632.5625 C14.26818359 632.7275 13.17699219 632.8925 12.05273438 633.0625 C10.94220703 633.2275 9.83167969 633.3925 8.6875 633.5625 C6.75436204 633.89088973 4.82203128 634.22407426 2.890625 634.5625 C-71.67609768 647.24145836 -151.91212004 637.01943745 -217.9140625 598.54296875 C-220.54453673 597.01003722 -223.18598851 595.54947635 -225.875 594.125 C-236.17525719 588.38323704 -245.75221449 581.33354373 -255.25 574.375 C-256.03036621 573.80531494 -256.81073242 573.23562988 -257.61474609 572.64868164 C-262.74232683 568.85689862 -267.58075777 564.83635233 -272.3125 560.5625 C-273.2715625 559.69625 -274.230625 558.83 -275.21875 557.9375 C-276.0746875 557.15375 -276.930625 556.37 -277.8125 555.5625 C-281.71740524 551.98888714 -285.67573771 548.50726381 -289.75390625 545.1328125 C-291.46272389 543.4111466 -292.34969426 541.77551618 -293.3125 539.5625 C-293.9725 539.5625 -294.6325 539.5625 -295.3125 539.5625 C-296.6875 538.19921875 -296.6875 538.19921875 -298.3125 536.25 C-302.1944307 531.66226372 -306.26888472 527.27235957 -310.37109375 522.8828125 C-312.3125 520.5625 -312.3125 520.5625 -312.3125 518.5625 C-312.9725 518.5625 -313.6325 518.5625 -314.3125 518.5625 C-316.63269297 515.37223467 -318.65893078 512.14523331 -320.3125 508.5625 C-320.9725 508.5625 -321.6325 508.5625 -322.3125 508.5625 C-323.36282247 506.92707942 -324.35540309 505.25416879 -325.3125 503.5625 C-326.30059952 502.15821725 -327.30136232 500.76278647 -328.3125 499.375 C-333.29898063 492.32147399 -337.70121245 484.89513128 -342.14648438 477.49365234 C-343.12838993 475.86742266 -344.13205694 474.25436104 -345.140625 472.64453125 C-346.3125 470.5625 -346.3125 470.5625 -346.3125 468.5625 C-346.9725 468.2325 -347.6325 467.9025 -348.3125 467.5625 C-349.62003214 465.22697707 -350.82922474 462.90327318 -352 460.5 C-352.35449219 459.77901123 -352.70898438 459.05802246 -353.07421875 458.31518555 C-356.72195404 450.8283717 -360.13716209 443.26132574 -363.3125 435.5625 C-363.6321875 434.78841797 -363.951875 434.01433594 -364.28125 433.21679688 C-376.24073551 403.90204235 -383.90524613 372.1694307 -386.3125 340.5625 C-386.42207031 339.24894531 -386.53164063 337.93539063 -386.64453125 336.58203125 C-393.02199795 252.59180713 -367.14566349 168.9957008 -313.37890625 104.1015625 C-311.07973756 101.276497 -308.91235027 98.37833958 -306.796875 95.4140625 C-304.8139689 92.94064804 -302.56171333 90.79633824 -300.3125 88.5625 C-298.6735345 86.90197353 -297.03554776 85.24048057 -295.3984375 83.578125 C-293.97932168 82.14519303 -292.56018616 80.71228018 -291.14013672 79.28027344 C-290.18060645 78.31074471 -289.22288602 77.33942107 -288.26708984 76.36621094 C-281.63836628 69.62055036 -274.73605739 63.4378521 -267.3125 57.5625 C-266.03421552 56.51444831 -264.75789286 55.46399487 -263.484375 54.41015625 C-255.10032714 47.55635877 -246.4467238 41.37380429 -237.3125 35.5625 C-235.76369141 34.56669922 -235.76369141 34.56669922 -234.18359375 33.55078125 C-230.92474263 31.49891202 -227.63478467 29.50923921 -224.3125 27.5625 C-223.61624512 27.15418945 -222.91999023 26.74587891 -222.20263672 26.32519531 C-169.59036827 -4.22094204 -53.96763676 -47.23170587 0 0 Z M-247.3125 99.5625 C-248.55846449 100.62972946 -249.80843956 101.69229557 -251.0625 102.75 C-260.11527529 110.66429239 -268.66684868 119.29339969 -276.09033203 128.75488281 C-278.21741555 131.44236474 -280.39849815 134.07514519 -282.59375 136.70703125 C-300.95341468 159.14286111 -315.14597642 185.45559748 -325.3125 212.5625 C-325.6120459 213.35688477 -325.9115918 214.15126953 -326.22021484 214.96972656 C-331.71857236 229.82144346 -335.35394427 245.02085726 -338.3125 260.5625 C-338.52567871 261.66464844 -338.73885742 262.76679688 -338.95849609 263.90234375 C-344.94134407 296.12716807 -344.4047005 330.39754871 -338.3125 362.5625 C-337.99901611 364.22007324 -337.99901611 364.22007324 -337.67919922 365.91113281 C-324.99184636 430.44081513 -288.81475264 492.21142373 -236.3125 532.5625 C-235.33410156 533.34625 -234.35570312 534.13 -233.34765625 534.9375 C-197.14338632 563.75464752 -153.41772291 582.27990932 -108.125 590.8125 C-107.33198486 590.96372314 -106.53896973 591.11494629 -105.72192383 591.27075195 C-89.65688108 594.10312534 -73.47163702 594.94701366 -57.1875 594.875 C-56.29930573 594.87284485 -55.41111145 594.8706897 -54.4960022 594.86846924 C13.42383487 594.605688 77.91899275 569.91683272 129.5 526 C130.42631226 525.21230225 130.42631226 525.21230225 131.37133789 524.40869141 C132.83076836 523.15025286 134.26225952 521.85953294 135.6875 520.5625 C135.6875 520.2325 135.6875 519.9025 135.6875 519.5625 C123.12921233 520.1134758 110.72722249 521.52850812 98.25952148 523.09155273 C94.99590565 523.50051306 91.73145722 523.90220608 88.46679688 524.30273438 C79.16996242 525.45059389 69.89725879 526.64604017 60.64672852 528.12670898 C54.78735593 528.98958994 48.8925114 529.54100175 43 530.125 C41.75927734 530.25068359 40.51855469 530.37636719 39.24023438 530.50585938 C36.80978122 530.75160662 34.37912041 530.99531007 31.94824219 531.23681641 C30.04217727 531.42719456 28.1364088 531.62067682 26.23144531 531.82177734 C11.21882578 533.39573335 -3.86482576 534.36614563 -18.92236328 535.39855957 C-20.42212168 535.5014286 -21.92180853 535.60535193 -23.42138672 535.71081543 C-56.32254809 538.01273853 -99.85694391 538.34548415 -127.3125 517.3125 C-142.84540115 503.55478756 -146.22995144 486.67845825 -148 466.9375 C-149.22489945 446.39491544 -147.4482274 426.1365213 -144 405.875 C-143.81155518 404.76165283 -143.62311035 403.64830566 -143.42895508 402.5012207 C-140.14391851 384.09732385 -135.22988201 366.19324668 -129.625 348.375 C-129.32046906 347.39958252 -129.01593811 346.42416504 -128.70217896 345.41918945 C-124.13386548 330.81228427 -119.20646262 316.46058777 -113.41357422 302.28930664 C-112.21001815 299.30870403 -111.0570722 296.31143239 -109.91015625 293.30859375 C-107.12795695 286.04672714 -104.23742371 278.83025425 -101.3125 271.625 C-101.0338208 270.93785919 -100.7551416 270.25071838 -100.46801758 269.54275513 C-95.87515423 258.2348882 -91.09995189 247.0155406 -86.20922852 235.83374023 C-83.33930983 229.26710811 -80.50853476 222.68689577 -77.74609375 216.07421875 C-77.45195587 215.37012375 -77.15781799 214.66602875 -76.85476685 213.94059753 C-75.43991663 210.54958264 -74.0300104 207.1565773 -72.625 203.76147461 C-70.32382796 198.22848795 -67.99040203 192.78263638 -65.23999023 187.45898438 C-63.38108098 183.65798225 -61.90716882 179.69116296 -60.375 175.75 C-58.33177911 170.50477763 -56.23038741 165.31714066 -53.875 160.203125 C-46.07603126 143.22522111 -39.81822754 125.57201819 -33.875 107.875 C-33.62410614 107.13516876 -33.37321228 106.39533752 -33.11471558 105.63308716 C-21.42754641 72.56205505 -21.42754641 72.56205505 -25.0625 39 C-28.58052069 33.01936483 -33.79275858 30.33343322 -40.3125 28.5625 C-110.12848184 15.15048244 -197.14745405 52.18975028 -247.3125 99.5625 Z M12.6875 108.5625 C10.18551657 114.60909775 7.92288248 120.69310515 5.85107422 126.8996582 C-6.76888628 164.57264324 -23.38321103 200.77046305 -39.31005859 237.12207031 C-54.96363531 272.85710839 -69.92992188 308.77327539 -82.6541748 345.66436768 C-83.56877597 348.30141401 -84.50751443 350.92972213 -85.4453125 353.55859375 C-98.23036075 389.89178897 -113.60590436 441.47389567 -102.3125 479.5625 C-94.3645877 489.65227731 -77.85022277 490.5387684 -65.95703125 491.96484375 C-49.40690931 493.43641367 -32.6373455 492.78249773 -16.08203125 491.78515625 C-15.37582642 491.74290169 -14.66962158 491.70064713 -13.9420166 491.65711212 C1.77773913 490.69584665 17.37958894 488.97032969 33.01008224 487.07509995 C36.75851762 486.62303285 40.50838948 486.18316535 44.25805664 485.74145508 C57.74996521 484.14760219 71.23548997 482.50550261 84.71484375 480.80859375 C87.85314649 480.41428365 90.99146371 480.02009025 94.12982178 479.6262207 C96.1143291 479.37694915 98.09874621 479.12695818 100.08306885 478.8762207 C115.49574384 476.93764941 130.90904149 475.4908693 146.41186523 474.4987793 C147.53057762 474.42311989 147.53057762 474.42311989 148.67189026 474.34593201 C150.65950407 474.21284614 152.64785174 474.09084865 154.63623047 473.96972656 C157.8562571 473.76759573 157.8562571 473.76759573 160.6875 471.5625 C160.6875 470.9025 160.6875 470.2425 160.6875 469.5625 C161.3475 469.5625 162.0075 469.5625 162.6875 469.5625 C162.6875 468.9025 162.6875 468.2425 162.6875 467.5625 C163.285625 467.29824219 163.88375 467.03398438 164.5 466.76171875 C168.43793348 464.60288736 170.8640377 460.99135331 173.6875 457.5625 C174.11595215 457.05557617 174.5444043 456.54865234 174.98583984 456.02636719 C187.50046976 441.2042297 197.45046707 425.10003256 205.6875 407.5625 C206.13351562 406.67175781 206.57953125 405.78101563 207.0390625 404.86328125 C229.75145764 358.19297254 230.44863175 299.44083134 213.80078125 250.88671875 C209.25097919 238.27720287 203.72260526 225.99184024 196.6875 214.5625 C194.31424061 217.4779527 192.87138984 220.21902382 191.53369141 223.7253418 C190.93558403 225.27866714 190.93558403 225.27866714 190.32539368 226.8633728 C189.90090439 227.98482697 189.4764151 229.10628113 189.0390625 230.26171875 C188.59004074 231.43231842 188.14101898 232.60291809 187.6783905 233.80899048 C186.71661717 236.31831282 185.75709996 238.8283597 184.80142212 241.33999634 C183.30724775 245.26649684 181.8044363 249.18965089 180.29956055 253.11206055 C179.79814125 254.41914359 179.29672218 255.72622672 178.79530334 257.03330994 C178.5483629 257.67696943 178.30142246 258.32062893 178.04699898 258.98379326 C177.30179729 260.92703799 176.55740257 262.87059011 175.81321716 264.81422424 C172.09506499 274.52228761 168.32631029 284.20909794 164.5 293.875 C163.98467853 295.17862087 163.46937881 296.48225033 162.95410156 297.78588867 C161.98569538 300.23470638 161.01626587 302.68311226 160.04638672 305.13134766 C157.87829273 310.60572654 155.71829108 316.08326567 153.5625 321.5625 C153.13549805 322.64708496 152.70849609 323.73166992 152.26855469 324.84912109 C149.21788901 332.61671867 146.20290439 340.39771128 143.19921875 348.18359375 C103.53492904 450.97351822 103.53492904 450.97351822 69.0859375 467.8359375 C57.44409201 472.62963858 44.44204133 474.00239609 31.984375 473.13671875 C24.42168847 472.69591198 16.89596765 472.4729739 9.3203125 472.5 C8.37427155 472.50323776 7.42823059 472.50647552 6.45352173 472.5098114 C3.57314209 472.52346111 0.69283895 472.54205135 -2.1875 472.5625 C-13.55598851 472.64231888 -24.81923576 472.66717261 -36.15966797 471.78515625 C-40.42942876 471.48362134 -44.66049185 471.4952431 -48.9375 471.5625 C-59.69471987 471.65013519 -70.43581873 471.36778106 -81.1875 471.0625 C-82.03483704 471.03849121 -82.88217407 471.01448242 -83.75518799 470.98974609 C-88.60774881 470.85135367 -93.46016748 470.70866865 -98.3125 470.5625 C-95.41198085 462.06029094 -92.49891524 453.69279891 -88.65722656 445.5625 C-85.50738393 438.53540011 -82.91420519 431.26173559 -80.1875 424.0625 C-74.148267 408.12293809 -67.79082885 392.32785614 -61.3125 376.5625 C-60.49976624 376.57138245 -59.68703247 376.58026489 -58.84967041 376.5894165 C-51.14218216 376.66999289 -43.43490183 376.73068097 -35.72710037 376.76974869 C-31.76563612 376.79050994 -27.80452361 376.81861381 -23.84326172 376.86425781 C-20.01121376 376.90813014 -16.17950136 376.93172298 -12.34722137 376.94200897 C-10.89455645 376.94932697 -9.4419072 376.96361443 -7.98938751 376.98542023 C0.99709081 377.11480537 9.55521229 376.83448575 17.6875 372.5625 C20.38068682 369.94717161 20.38068682 369.94717161 21.6875 366.5625 C21.95803192 365.95896698 22.22856384 365.35543396 22.5072937 364.73361206 C23.3856111 362.69426556 24.18137326 360.6361404 24.96484375 358.55859375 C25.25807022 357.79885757 25.55129669 357.0391214 25.85340881 356.25636292 C26.78415539 353.84015304 27.70474894 351.420224 28.625 349 C29.23825974 347.40273641 29.85218671 345.80572883 30.46679688 344.20898438 C32.67882532 338.45524708 34.87640086 332.69604964 37.06689453 326.93408203 C39.38714838 320.85463614 41.79941021 314.8268557 44.32080078 308.828125 C47.13924402 302.09366685 49.87841637 295.32651282 52.625 288.5625 C52.94775909 287.76813538 53.27051819 286.97377075 53.60305786 286.15533447 C58.86244312 273.19872625 63.97330745 260.18908432 69.01037598 247.14465332 C72.89005369 237.10195438 76.86458911 227.11823176 81.13671875 217.234375 C82.76140786 213.38750407 84.22124825 209.47250466 85.6875 205.5625 C137.1675 205.0675 137.1675 205.0675 189.6875 204.5625 C187.93185213 200.17338034 186.61326297 198.06162677 183.6875 194.5625 C181.60512446 191.65110326 179.54512614 188.72518489 177.4921875 185.79296875 C176.89664062 185.05691406 176.30109375 184.32085937 175.6875 183.5625 C175.0275 183.5625 174.3675 183.5625 173.6875 183.5625 C173.42195313 182.98113281 173.15640625 182.39976562 172.8828125 181.80078125 C169.61879678 175.68875181 164.18579259 170.93309147 158.9453125 166.51953125 C157.31448166 165.10595642 155.73092112 163.63721109 154.1796875 162.13671875 C118.54769042 127.84464357 65.98467828 108.62541969 16.875 108.4375 C15.47905477 108.47523228 14.08318429 108.51610854 12.6875 108.5625 Z M115.17480469 250.51318359 C113.20616231 254.54935287 111.52465197 258.66305865 109.87890625 262.83984375 C109.516297 263.74988159 109.15368774 264.65991943 108.78009033 265.59753418 C107.59935211 268.56343391 106.42466209 271.53168918 105.25 274.5 C104.43035776 276.56209976 103.61028645 278.62402903 102.78979492 280.68579102 C101.16068833 284.78065742 99.53361471 288.87632182 97.90820312 292.97265625 C96.06715886 297.61022839 94.21780263 302.24436911 92.359375 306.875 C91.87694336 308.07721191 91.39451172 309.27942383 90.89746094 310.51806641 C90.43629883 311.66710449 89.97513672 312.81614258 89.5 314 C86.28371053 322.02274303 83.09553433 330.05574849 79.9375 338.1015625 C53.95000468 404.29629406 53.95000468 404.29629406 32.84375 413.83984375 C12.35472933 422.56752391 -10.44098559 421.9369136 -32.3125 421.5625 C-32.6425 423.5425 -32.9725 425.5225 -33.3125 427.5625 C-17.81745953 428.4686618 -2.32494609 428.8648642 13.19525909 428.95538902 C16.68829939 428.97586196 20.18026956 429.00863447 23.67285156 429.07006836 C27.77684912 429.14202394 31.87978699 429.1644771 35.984375 429.18359375 C37.85014191 429.22533974 37.85014191 429.22533974 39.75360107 429.26792908 C49.20355878 429.24557369 54.12398632 426.64004883 61.03515625 420.46484375 C79.82400753 398.93684331 88.18702932 369.41840575 98.18511963 343.11509705 C100.31753197 337.51204945 102.49809674 331.93123171 104.75 326.375 C109.04729634 315.75358357 113.17471225 305.0661064 117.31323242 294.38208008 C120.18948748 286.96080552 123.0812079 279.54698839 126.03515625 272.15625 C126.55305386 270.8561498 127.07087815 269.55602039 127.58862305 268.25585938 C128.54925233 265.84863729 129.51530105 263.44356865 130.48754883 261.04101562 C130.91189209 259.97560547 131.33623535 258.91019531 131.7734375 257.8125 C132.1451709 256.88953125 132.5169043 255.9665625 132.89990234 255.015625 C133.89129344 252.35715552 133.89129344 252.35715552 133.6875 248.5625 C130.91504986 248.42762405 128.14912912 248.32849193 125.375 248.25 C124.58931641 248.20810547 123.80363281 248.16621094 122.99414062 248.12304688 C122.23681641 248.10693359 121.47949219 248.09082031 120.69921875 248.07421875 C120.00272217 248.04803467 119.30622559 248.02185059 118.58862305 247.99487305 C116.49592165 248.41889171 116.49592165 248.41889171 115.17480469 250.51318359 Z " fill="#FFFFFF" transform="translate(419.3125,103.4375)"/>
<path d="M0 0 C1.51400391 0.01740234 1.51400391 0.01740234 3.05859375 0.03515625 C4.07050781 0.04417969 5.08242187 0.05320313 6.125 0.0625 C6.90746094 0.07410156 7.68992187 0.08570313 8.49609375 0.09765625 C16.44283231 18.35117509 24.36058073 36.61045557 31.93041992 55.02416992 C35.92452295 64.73609082 39.97957107 74.42113626 44.05859375 84.09765625 C44.3898526 84.88366211 44.72111145 85.66966797 45.06240845 86.47949219 C49.94584505 98.06498396 54.83915273 109.64631121 59.73095703 121.22827148 C60.13558167 122.18627655 60.5402063 123.14428162 60.95709229 124.13131714 C61.77521305 126.06828267 62.59336901 128.00523334 63.41156006 129.94216919 C68.86812365 142.86034682 74.30955814 155.78467026 79.7265625 168.71948242 C82.5492959 175.4590479 85.37771693 182.19616669 88.21484375 188.9296875 C88.6973056 190.07478287 88.6973056 190.07478287 89.18951416 191.24301147 C90.52331417 194.40838483 91.85726398 197.5736948 93.19177246 200.73876953 C97.11859129 210.05273576 101.03197614 219.37204343 104.91796875 228.703125 C112.43249643 246.73968476 120.01140166 264.74365573 127.80859375 282.66015625 C128.34080032 283.88616043 128.34080032 283.88616043 128.88375854 285.13693237 C137.99659923 308.53592676 137.99659923 308.53592676 156.5859375 324.13671875 C170.94919882 328.87948692 185.58837375 328.87673361 200.49609375 327.28515625 C201.17792725 327.21530518 201.85976074 327.1454541 202.56225586 327.07348633 C209.64950603 326.20242281 216.26474189 324.17954091 221.49609375 319.09765625 C231.86595136 303.95185913 228.6445116 278.91162814 228.62548828 261.33398438 C228.62684665 259.20145132 228.62862902 257.0689185 228.63079834 254.93638611 C228.63532082 249.19469301 228.63360463 243.45301807 228.63041925 237.71132469 C228.62786867 231.67217336 228.63024066 225.63302347 228.63180542 219.59387207 C228.63361928 209.45662154 228.63124141 199.31937832 228.62646484 189.18212891 C228.62102374 177.50042081 228.62278695 165.81873017 228.62829125 154.1370225 C228.63284474 144.06600754 228.63346201 133.9949978 228.63085258 123.92398214 C228.62930209 117.92710681 228.62906212 111.93023966 228.63238907 105.93336487 C228.63530041 100.29270685 228.63323276 94.65207112 228.62749481 89.01141548 C228.62618459 86.95446878 228.62653136 84.89752018 228.62875748 82.84057426 C230.48497288 53.15863562 230.48497288 53.15863562 220.49609375 27.09765625 C207.68111186 20.19728139 192.50637774 20.92564326 178.34765625 21.16015625 C175.49609375 21.09765625 175.49609375 21.09765625 174.49609375 20.09765625 C174.42350429 17.91126172 174.41235592 15.72265236 174.43359375 13.53515625 C174.44261719 12.33761719 174.45164062 11.14007813 174.4609375 9.90625 C174.47833984 8.51599609 174.47833984 8.51599609 174.49609375 7.09765625 C379.9140412 -5.06782204 379.9140412 -5.06782204 462.49609375 38.09765625 C463.47320313 38.85046875 464.4503125 39.60328125 465.45703125 40.37890625 C498.59874708 66.74374461 516.76208379 105.78319945 521.8984375 147.35400391 C522.66200345 154.58964924 523.1574385 161.83051303 523.49609375 169.09765625 C523.54805908 170.16886719 523.54805908 170.16886719 523.60107422 171.26171875 C524.95754863 204.01931203 518.12250438 237.2871576 502.49609375 266.09765625 C502.16851074 266.71656738 501.84092773 267.33547852 501.50341797 267.97314453 C497.0228774 276.41852817 491.98805642 284.0350202 485.49609375 291.09765625 C484.94453613 291.70367676 484.39297852 292.30969727 483.82470703 292.93408203 C472.81199494 304.88392081 460.42835155 315.34899319 445.49609375 322.09765625 C444.83609375 322.09765625 444.17609375 322.09765625 443.49609375 322.09765625 C443.16609375 322.75765625 442.83609375 323.41765625 442.49609375 324.09765625 C440.75634766 324.97973633 440.75634766 324.97973633 438.47265625 325.8671875 C437.62598389 326.19630127 436.77931152 326.52541504 435.90698242 326.86450195 C434.98763916 327.20956787 434.0682959 327.55463379 433.12109375 327.91015625 C432.17661377 328.2661792 431.23213379 328.62220215 430.2590332 328.98901367 C421.14390045 332.34866295 411.95330168 334.9132351 402.49609375 337.09765625 C401.30242188 337.39414062 400.10875 337.690625 398.87890625 337.99609375 C389.98003557 339.96280259 381.040259 340.60222684 371.96240234 341.16549683 C370.91745956 341.23104451 370.91745956 341.23104451 369.85140681 341.2979164 C354.70334244 342.22815765 339.57766414 342.3743994 324.40458107 342.32978749 C320.59870136 342.32092576 316.79282563 342.3240887 312.98693848 342.32559204 C306.43514335 342.32662696 299.8833889 342.32049914 293.331604 342.30911636 C283.85951775 342.29267094 274.38745061 342.28763421 264.91535163 342.28514038 C249.53730668 342.28079264 234.15928329 342.26756408 218.78125 342.24853516 C203.86718858 342.23009986 188.95313306 342.21598111 174.0390625 342.20751953 C173.11552703 342.20699408 172.19199156 342.20646864 171.24047017 342.20592727 C166.60610028 342.20331668 161.97173034 342.20078938 157.33736038 342.19830346 C119.05692296 342.17766222 80.77651014 342.14236623 42.49609375 342.09765625 C42.49609375 337.80765625 42.49609375 333.51765625 42.49609375 329.09765625 C47.41109133 328.32193865 52.20418463 327.93075096 57.18359375 327.72265625 C69.89471371 327.30909463 69.89471371 327.30909463 80.74609375 321.59765625 C83.52352438 316.04279499 83.30588912 310.33626423 81.80664062 304.34033203 C80.8344424 301.48667439 79.75770523 298.70236383 78.62109375 295.91015625 C78.21544189 294.87334717 77.80979004 293.83653809 77.3918457 292.76831055 C76.1169805 289.5346312 74.81237296 286.31468009 73.49609375 283.09765625 C73.09535645 282.11539062 72.69461914 281.133125 72.28173828 280.12109375 C69.85345704 274.19660652 67.37414979 268.2943937 64.88330078 262.39599609 C62.5373525 256.8180726 60.22453901 251.22646077 57.91201782 245.63461304 C57.14423967 243.77860852 56.37523935 241.92310973 55.60620117 240.06762695 C54.23136779 236.74625419 52.8621717 233.42263843 51.49609375 230.09765625 C51.08713867 229.10733398 50.67818359 228.11701172 50.25683594 227.09667969 C49.70624512 225.74751465 49.70624512 225.74751465 49.14453125 224.37109375 C48.82403809 223.58911621 48.50354492 222.80713867 48.17333984 222.00146484 C47.49609375 220.09765625 47.49609375 220.09765625 47.49609375 218.09765625 C46.24891571 218.25998749 45.00173767 218.42231873 43.71676636 218.58956909 C38.1261825 219.20687214 32.58489006 219.23800684 26.96533203 219.22705078 C25.84717606 219.2288031 24.72902008 219.23055542 23.57698059 219.23236084 C19.90677304 219.23673758 16.23661423 219.23385733 12.56640625 219.23046875 C10.00812775 219.2311427 7.44984932 219.23211349 4.89157104 219.23336792 C-0.45608187 219.23483898 -5.80371748 219.2328044 -11.15136719 219.22802734 C-17.33231964 219.22256965 -23.51323918 219.22436174 -29.69419086 219.22985375 C-35.65239351 219.23493546 -41.61058593 219.23440218 -47.56879044 219.23147202 C-50.10061777 219.23080397 -52.63244595 219.2316269 -55.16427231 219.23395157 C-58.69270838 219.23648188 -62.22108044 219.23263285 -65.74951172 219.22705078 C-67.32512627 219.23008713 -67.32512627 219.23008713 -68.93257141 219.23318481 C-69.89131668 219.23036499 -70.85006195 219.22754517 -71.83786011 219.22463989 C-72.67145491 219.22426287 -73.50504971 219.22388584 -74.36390495 219.22349739 C-76.50390625 219.09765625 -76.50390625 219.09765625 -79.50390625 218.09765625 C-79.65520996 218.66363525 -79.80651367 219.22961426 -79.96240234 219.81274414 C-82.08306744 227.32812311 -85.05562536 234.36691008 -88.12890625 241.53515625 C-104.10499239 275.61241572 -104.10499239 275.61241572 -104.00390625 311.53515625 C-100.67724628 318.59416642 -95.41694 322.58835507 -88.25390625 325.41015625 C-82.42973916 327.31342544 -76.56197508 328.24239947 -70.50390625 329.09765625 C-70.50390625 333.38765625 -70.50390625 337.67765625 -70.50390625 342.09765625 C-147.44021033 343.20911198 -224.35614248 343.11141096 -301.29678406 342.79080901 C-313.53483468 342.73991139 -325.77289582 342.69540404 -338.01098633 342.65527344 C-352.45418184 342.60790514 -366.89736005 342.55743023 -381.34052497 342.50144804 C-382.87214108 342.49551525 -384.40375719 342.48958391 -385.93537331 342.48365402 C-386.68797703 342.48073564 -387.44058076 342.47781725 -388.21599066 342.47481043 C-393.49207407 342.45454525 -398.76816232 342.43644203 -404.04425621 342.41914749 C-411.06570495 342.39603824 -418.08711502 342.36760068 -425.10852814 342.33545876 C-427.68344004 342.32446406 -430.25835989 342.31518429 -432.83328438 342.30769539 C-436.32649122 342.29725659 -439.81961595 342.28075745 -443.31278992 342.26260376 C-444.34280347 342.26094353 -445.37281702 342.25928331 -446.43404311 342.25757277 C-447.36016522 342.25148163 -448.28628733 342.24539048 -449.24047375 342.23911476 C-450.04557359 342.23591465 -450.85067343 342.23271453 -451.68017024 342.22941744 C-453.50390625 342.09765625 -453.50390625 342.09765625 -454.50390625 341.09765625 C-454.57634678 339.07801426 -454.58767813 337.05598501 -454.56640625 335.03515625 C-454.55738281 333.93042969 -454.54835938 332.82570313 -454.5390625 331.6875 C-454.52166016 330.40552734 -454.52166016 330.40552734 -454.50390625 329.09765625 C-453.75407471 329.05801758 -453.00424316 329.01837891 -452.23168945 328.97753906 C-430.6311927 328.23241686 -430.6311927 328.23241686 -410.50390625 321.09765625 C-409.34468497 319.36622771 -409.34468497 319.36622771 -408.50390625 317.09765625 C-408.00890625 316.16953125 -407.51390625 315.24140625 -407.00390625 314.28515625 C-401.99043154 302.25838375 -403.08136598 287.03424263 -402.88671875 274.25 C-402.86828037 273.20842176 -402.849842 272.16684353 -402.83084488 271.09370232 C-402.24930504 237.9901539 -402.35319675 204.87613748 -402.37533593 171.76875341 C-402.37967293 164.53401814 -402.3765783 157.29930036 -402.37170875 150.0645662 C-402.36711005 142.93355622 -402.36655855 135.80255357 -402.36914742 128.67154258 C-402.37066973 124.47652048 -402.37101999 120.28150998 -402.36761093 116.08648872 C-402.35637307 99.86675396 -402.42736329 83.65125478 -402.83125329 67.43581951 C-402.86774158 65.95676018 -402.90180391 64.47763841 -402.93309188 62.99845994 C-402.94260783 43.04067722 -402.94260783 43.04067722 -410.50390625 25.09765625 C-412.66339099 23.08140264 -414.71941892 22.0479178 -417.50390625 21.09765625 C-418.4784375 20.76507813 -418.4784375 20.76507813 -419.47265625 20.42578125 C-426.28903564 18.64968239 -433.29529684 18.95401514 -440.28393555 19.08300781 C-445.15907862 19.16447333 -449.69762712 18.93664138 -454.50390625 18.09765625 C-454.53076563 15.95188988 -454.55023713 13.8060298 -454.56640625 11.66015625 C-454.57800781 10.46519531 -454.58960938 9.27023438 -454.6015625 8.0390625 C-454.50390625 5.09765625 -454.50390625 5.09765625 -453.50390625 4.09765625 C-451.43060228 3.99862723 -449.35386577 3.97133299 -447.27819824 3.97067261 C-446.62059745 3.96911262 -445.96299666 3.96755263 -445.28546858 3.96594536 C-443.06594112 3.96193359 -440.84648118 3.96512567 -438.62695312 3.96826172 C-437.042241 3.96690776 -435.4575292 3.96512785 -433.87281799 3.96295166 C-429.55682421 3.95837673 -425.24085422 3.96016713 -420.92486 3.96333075 C-416.41828978 3.96585404 -411.91172166 3.96351689 -407.40515137 3.96194458 C-399.83568962 3.96012279 -392.26623761 3.96252943 -384.69677734 3.96728516 C-375.93252199 3.97272779 -367.16828989 3.97096514 -358.40403509 3.96545875 C-350.89323143 3.96092787 -343.38243478 3.96027695 -335.87163019 3.96289742 C-331.37962112 3.96446034 -326.887623 3.96465357 -322.39561462 3.96136093 C-318.17351627 3.95848259 -313.95144804 3.96045723 -309.72935295 3.96625519 C-308.17526741 3.96758298 -306.62117936 3.96718834 -305.0670948 3.96499252 C-302.95456648 3.96228177 -300.84213624 3.96566119 -298.72961426 3.97067261 C-296.95204113 3.97123815 -296.95204113 3.97123815 -295.13855743 3.97181511 C-292.50390625 4.09765625 -292.50390625 4.09765625 -291.50390625 5.09765625 C-291.43146572 7.11729824 -291.42013437 9.13932749 -291.44140625 11.16015625 C-291.45042969 12.26488281 -291.45945312 13.36960938 -291.46875 14.5078125 C-291.48615234 15.78978516 -291.48615234 15.78978516 -291.50390625 17.09765625 C-295.76788358 18.72136415 -299.1709612 19.31536835 -303.72265625 19.1875 C-304.89626709 19.16526367 -306.06987793 19.14302734 -307.27905273 19.12011719 C-309.12285522 19.07806152 -309.12285522 19.07806152 -311.00390625 19.03515625 C-329.00014895 18.31520309 -329.00014895 18.31520309 -344.50390625 26.09765625 C-359.77567635 45.56800967 -351.6526421 94.4274101 -351.63823175 117.97067761 C-351.63565931 123.5064074 -351.63805901 129.04213573 -351.63961792 134.5778656 C-351.64142544 143.8643321 -351.63907067 153.15079058 -351.63427734 162.43725586 C-351.62883588 173.10107139 -351.63060232 183.76486779 -351.63610375 194.42868286 C-351.64067366 203.66437839 -351.64126667 212.90006824 -351.63866508 222.13576454 C-351.63712367 227.61690104 -351.63684873 233.09802861 -351.64020157 238.57916451 C-351.69675473 265.9986215 -351.69675473 265.9986215 -351.12060547 293.40991211 C-351.09026278 294.39907655 -351.05992008 295.38824099 -351.02865791 296.4073801 C-350.69839794 304.25437305 -349.93779088 311.44682931 -345.50390625 318.09765625 C-345.50390625 318.75765625 -345.50390625 319.41765625 -345.50390625 320.09765625 C-337.71491121 324.06999924 -330.5091404 326.72571307 -321.75390625 327.34765625 C-320.79782471 327.42209961 -319.84174316 327.49654297 -318.85668945 327.57324219 C-264.13733771 332.29979654 -264.13733771 332.29979654 -215.50390625 312.97265625 C-194.97577921 293.61847156 -186.96022584 267.28496851 -178.50390625 241.09765625 C-174.21390625 241.09765625 -169.92390625 241.09765625 -165.50390625 241.09765625 C-165.23628809 270.08962334 -165.92724868 299.14753952 -167.50390625 328.09765625 C-149.29851139 322.61176393 -137.91508774 315.53205176 -128.63671875 298.27734375 C-122.18747512 285.84601714 -116.73203066 273.0014154 -111.87915039 259.875 C-108.67118132 251.31005665 -105.06729539 242.92905587 -101.44140625 234.53515625 C-96.2648095 222.54364346 -91.1412346 210.53386317 -86.12890625 198.47265625 C-85.82637939 197.74477905 -85.52385254 197.01690186 -85.2121582 196.26696777 C-83.64420241 192.49294432 -82.07812722 188.71814449 -80.51318359 184.94287109 C-78.7263532 180.63267539 -76.93601285 176.32394488 -75.1449585 172.01550293 C-73.6150567 168.33489309 -72.08617648 164.6538595 -70.55755615 160.97271729 C-69.82639279 159.21215971 -69.09499684 157.45169871 -68.36334229 155.69134521 C-64.43277414 146.23208089 -60.54045934 136.76064708 -56.75708008 127.24145508 C-54.14821939 120.69668611 -51.4318639 114.20209265 -48.6015625 107.75 C-38.11825137 83.84106174 -28.15917094 59.70709023 -18.13842773 35.6015625 C-14.60634512 27.10669851 -11.0492591 18.62316255 -7.44140625 10.16015625 C-7.05847412 9.25797363 -6.67554199 8.35579102 -6.28100586 7.42626953 C-5.93046143 6.60755371 -5.57991699 5.78883789 -5.21875 4.9453125 C-4.9105835 4.22351807 -4.60241699 3.50172363 -4.28491211 2.75805664 C-3.07480233 0.18539124 -2.97597161 0.11606754 0 0 Z M298.62109375 14.41015625 C297.93792084 14.43316803 297.25474792 14.45617981 296.5508728 14.47988892 C290.75849092 14.68739007 285.17497133 14.90779298 279.49609375 16.09765625 C279.45018887 49.97516015 279.41501014 83.85265622 279.39396309 117.73018438 C279.39146206 121.74126555 279.38887338 125.75234666 279.38623047 129.76342773 C279.38570585 130.56186997 279.38518123 131.3603122 279.38464071 132.18294965 C279.37596815 145.06490826 279.36021578 157.94684877 279.34178816 170.82879669 C279.32300103 184.07378198 279.31195852 197.31875787 279.30791676 210.56375593 C279.30518986 218.71860995 279.29661778 226.87341284 279.28026082 235.0282511 C279.26958477 240.64110572 279.26651677 246.2539344 279.269091 251.86679841 C279.27035602 255.09188636 279.26745608 258.3168687 279.2576828 261.5419445 C279.22287398 273.63382881 279.34652036 285.67940854 280.26028442 297.74168396 C280.35153432 299.11697332 280.35153432 299.11697332 280.44462764 300.52004629 C281.09813864 307.94263777 283.06782634 314.23354597 287.93359375 319.97265625 C299.77098309 329.78902789 316.96427973 328.60544811 331.55859375 328.47265625 C332.90863495 328.46617569 332.90863495 328.46617569 334.28594971 328.45956421 C368.18898961 328.2689287 401.64254376 323.55630717 427.6953125 300.015625 C429.72425516 298.29312347 429.72425516 298.29312347 429.49609375 296.09765625 C430.15609375 296.09765625 430.81609375 296.09765625 431.49609375 296.09765625 C433.13318146 294.23843582 434.63481896 292.3855318 436.12109375 290.41015625 C436.56767334 289.81783203 437.01425293 289.22550781 437.47436523 288.61523438 C458.16633689 260.78491985 467.51678318 226.84363261 467.69921875 192.375 C467.7098082 191.03252701 467.7098082 191.03252701 467.72061157 189.66293335 C467.92532685 156.06381135 465.93112339 123.4235545 452.49609375 92.09765625 C452.2321582 91.47246094 451.96822266 90.84726562 451.69628906 90.203125 C441.90043187 67.13699656 441.90043187 67.13699656 424.49609375 51.09765625 C424.49609375 50.43765625 424.49609375 49.77765625 424.49609375 49.09765625 C423.83609375 49.09765625 423.17609375 49.09765625 422.49609375 49.09765625 C422.16738281 48.25654297 422.16738281 48.25654297 421.83203125 47.3984375 C413.62396754 33.26232777 392.27736705 24.93209045 377.21875 20.90625 C363.36167981 17.44852825 349.42511265 15.71470933 335.18359375 14.91015625 C334.43728699 14.86651947 333.69098022 14.82288269 332.92205811 14.77792358 C321.46675669 14.12789237 310.08729347 14.01745878 298.62109375 14.41015625 Z M-16.50390625 66.09765625 C-24.57613463 85.16375354 -32.60282167 104.24663987 -40.44140625 123.41015625 C-46.09700905 137.23599741 -51.78177921 151.04919836 -57.50390625 164.84765625 C-57.8494455 165.68148834 -58.19498474 166.51532043 -58.55099487 167.37442017 C-59.55548303 169.79806031 -60.56077559 172.22136496 -61.56640625 174.64453125 C-61.88674332 175.41709763 -62.20708038 176.189664 -62.53712463 176.98564148 C-64.26662692 181.14887144 -66.01365878 185.30395817 -67.78125 189.45117188 C-68.15306396 190.32574036 -68.52487793 191.20030884 -68.90795898 192.10137939 C-69.6243995 193.78431237 -70.34383972 195.46597233 -71.06665039 197.1461792 C-72.85265516 200.98451633 -72.85265516 200.98451633 -73.50390625 205.09765625 C-35.55390625 205.09765625 2.39609375 205.09765625 41.49609375 205.09765625 C39.53135274 198.54851954 37.55385046 192.45566902 34.87890625 186.23046875 C34.53987274 185.4296286 34.20083923 184.62878845 33.85153198 183.80368042 C32.77960613 181.27456351 31.70057539 178.74855604 30.62109375 176.22265625 C29.90576025 174.53927053 29.19091309 172.85567806 28.4765625 171.171875 C27.10265875 167.93433485 25.72640885 164.69780794 24.34863281 161.46191406 C22.37787738 156.82733788 20.43878148 152.17992681 18.50976562 147.52783203 C17.65387665 145.47592479 16.78076265 143.43343895 15.89453125 141.39453125 C13.89670187 136.68456478 12.09012366 131.90481851 10.27734375 127.12109375 C8.73423372 123.10344692 7.0913523 119.16882636 5.27734375 115.265625 C2.90486684 110.11280324 0.74425609 104.88862046 -1.38671875 99.6328125 C-1.73052582 98.78598907 -2.07433289 97.93916565 -2.42855835 97.06668091 C-3.86184624 93.53199421 -5.29246764 89.99626739 -6.71630859 86.45776367 C-7.76790532 83.84730428 -8.82677221 81.23989057 -9.88671875 78.6328125 C-10.20553009 77.83488785 -10.52434143 77.0369632 -10.85281372 76.21485901 C-12.38128701 72.46867394 -13.81752533 69.19023773 -16.50390625 66.09765625 Z " fill="#FFFFFF" transform="translate(2004.50390625,214.90234375)"/>
<path d="M0 0 C33.99 0 67.98 0 103 0 C109.74172545 13.4834509 109.74172545 13.4834509 111.97265625 18.71484375 C112.72313232 20.46341675 112.72313232 20.46341675 113.48876953 22.24731445 C113.74482971 22.8479068 114.00088989 23.44849915 114.26470947 24.06729126 C115.66645016 27.35330131 117.08114156 30.6337241 118.49609375 33.9140625 C118.78597168 34.5863942 119.07584961 35.25872589 119.37451172 35.95143127 C122.39220252 42.93481836 125.50160819 49.87588179 128.625 56.8125 C132.55692224 65.54696359 136.46503028 74.29047036 140.3125 83.0625 C144.74222463 93.15864538 149.2074734 103.23860582 153.6875 113.3125 C154.02442871 114.07020691 154.36135742 114.82791382 154.70849609 115.60858154 C157.1383347 121.07268256 159.56906337 126.53638741 162 132 C177.72470754 167.34181396 177.72470754 167.34181396 184.57861328 182.94482422 C191.54697886 198.80518098 198.5547724 214.64815994 205.56347656 230.49072266 C207.17353577 234.13043373 208.7822214 237.77074681 210.38964844 241.41162109 C212.26108429 245.65038001 214.13519156 249.88794729 216.01138306 254.12460327 C216.70765141 255.69808524 217.40295647 257.27199385 218.09725952 258.84634399 C219.05312072 261.01330973 220.01244301 263.17870995 220.97265625 265.34375 C221.39162674 266.2968531 221.39162674 266.2968531 221.81906128 267.26921082 C223.05050809 270.03672951 224.31259048 272.46888572 226 275 C226.32572998 274.24307861 226.65145996 273.48615723 226.98706055 272.70629883 C233.08410421 258.55218159 239.22541199 244.42362342 245.5625 230.375 C250.40172123 219.64543908 255.08396912 208.8576362 259.69165039 198.02685547 C263.08294414 190.07775713 266.60848732 182.20189953 270.21826172 174.35009766 C274.07093749 165.93106124 277.69415685 157.4190264 281.31713867 148.89916992 C285.31377475 139.5297971 289.46006073 130.23486263 293.65280151 120.95205688 C297.38231834 112.68898898 300.95559245 104.39125188 304.34179688 95.98266602 C305.87029869 92.25614534 307.55106025 88.61621689 309.27734375 84.9765625 C312.58632119 77.94903739 315.73314806 70.85950231 318.82589722 63.73461914 C320.33268351 60.26388183 321.84615796 56.79606229 323.359375 53.328125 C323.81690407 52.27915039 323.81690407 52.27915039 324.28367615 51.20898438 C327.79195303 43.17312883 331.35681408 35.16273784 334.92993164 27.15551758 C337.05360198 22.39344638 339.16945469 17.62941821 341.23046875 12.83984375 C341.55668213 12.08316406 341.88289551 11.32648438 342.21899414 10.546875 C342.7992823 9.19584031 343.37566256 7.84311632 343.94702148 6.48828125 C345.07472717 3.86273221 345.9563132 2.0436868 348 0 C349.85189152 -0.24888897 349.85189152 -0.24888897 352.14405823 -0.24723816 C353.01202026 -0.25143265 353.8799823 -0.25562714 354.77424622 -0.25994873 C355.72861069 -0.25432922 356.68297516 -0.24870972 357.66625977 -0.24291992 C358.66956329 -0.24481827 359.67286682 -0.24671661 360.70657349 -0.24867249 C364.03492965 -0.25238818 367.36306937 -0.24166544 370.69140625 -0.23046875 C372.99543736 -0.22927738 375.29946896 -0.2288237 377.60350037 -0.2290802 C382.43646273 -0.227514 387.26935116 -0.21921339 392.10229492 -0.20581055 C398.31251548 -0.18881102 404.52265476 -0.18499639 410.73289585 -0.18575573 C415.49135623 -0.18548446 420.24979867 -0.18001033 425.0082531 -0.17275429 C427.29890749 -0.1695613 429.58956392 -0.16759875 431.88022041 -0.16686058 C435.07456081 -0.16470421 438.26881313 -0.15597554 441.46313477 -0.14526367 C442.89771782 -0.14594345 442.89771782 -0.14594345 444.36128235 -0.14663696 C445.22642456 -0.14237198 446.09156677 -0.13810699 446.98292542 -0.13371277 C448.1169824 -0.131199 448.1169824 -0.131199 449.27394962 -0.12863445 C451 0 451 0 452 1 C452.07244053 3.01964199 452.08377188 5.04167124 452.0625 7.0625 C452.05347656 8.16722656 452.04445313 9.27195313 452.03515625 10.41015625 C452.01775391 11.69212891 452.01775391 11.69212891 452 13 C447.86156377 14.56002271 444.52800289 15.22869789 440.11328125 15.125 C439.00919922 15.10953125 437.90511719 15.0940625 436.76757812 15.078125 C434.48371393 15.02648307 432.19985951 14.97440735 429.91601562 14.921875 C418.66730838 14.76518958 409.39999415 15.14857678 400.8125 23 C392.37675333 36.96261518 394.85064576 57.04759586 394.85473633 72.72485352 C394.85174033 75.02088983 394.8483368 77.31692565 394.84455872 79.61296082 C394.83575826 85.82407437 394.83338224 92.03517412 394.83274293 98.24629331 C394.83203006 102.13541318 394.82989123 106.02452959 394.82724571 109.91364861 C394.81848061 122.80616223 394.81382438 135.69866613 394.81457619 148.5911826 C394.81461614 149.28433697 394.8146561 149.97749134 394.81469727 150.69165039 C394.81473815 151.38566556 394.81477903 152.07968073 394.81482115 152.79472666 C394.81522706 164.02643197 394.80566822 175.25810367 394.7915589 186.48979927 C394.77713737 198.06273082 394.77047433 209.6356445 394.77115268 221.2085852 C394.77140645 227.68963023 394.76862245 234.17063719 394.75797462 240.65167427 C394.74822141 246.75438454 394.74826349 252.85702094 394.75549126 258.95973396 C394.75652825 261.18515634 394.75422759 263.4105835 394.7481308 265.63599777 C394.72159388 276.00324959 394.83579549 286.286994 395.8745575 296.60972595 C395.94999403 297.37616694 396.02543056 298.14260793 396.10315305 298.9322744 C396.99701422 306.74312915 399.44231719 312.13783115 404.625 317.9375 C414.14048718 323.75251994 425.36583388 323.67630466 436.1875 324.1875 C437.72727197 324.26908699 439.2669867 324.35176174 440.80664062 324.43554688 C444.53718533 324.63622184 448.2682849 324.82223849 452 325 C452.02686553 326.97909398 452.04633375 328.95828971 452.0625 330.9375 C452.07410156 332.03964844 452.08570313 333.14179687 452.09765625 334.27734375 C452 337 452 337 451 338 C448.92439194 338.09683581 446.84542796 338.12186902 444.76756287 338.12025452 C443.78010333 338.12153615 443.78010333 338.12153615 442.77269512 338.12284368 C440.55082894 338.1245003 438.32903705 338.11897418 436.10717773 338.11352539 C434.52084352 338.11324353 432.93450918 338.11340123 431.34817505 338.1139679 C427.02811278 338.11425592 422.70807803 338.10835837 418.38802218 338.10139394 C413.87831685 338.09516125 409.36861095 338.09455667 404.85890198 338.09336853 C396.31305626 338.09025496 387.76722326 338.08204124 379.22138315 338.07201904 C369.49482367 338.06085869 359.76826358 338.05534765 350.04169929 338.05032361 C330.02779241 338.03985864 310.01389701 338.02225871 290 338 C289.80602524 336.02145742 289.61998679 334.0421352 289.4375 332.0625 C289.33308594 330.96035156 289.22867187 329.85820313 289.12109375 328.72265625 C289.08113281 327.82417969 289.04117187 326.92570312 289 326 C290.78826632 324.21173368 293.48099249 324.67890519 295.90625 324.53515625 C297.73542969 324.41817383 297.73542969 324.41817383 299.6015625 324.29882812 C302.1691501 324.14317777 304.73685707 323.98948226 307.3046875 323.83789062 C322.89117669 322.85009291 322.89117669 322.85009291 336 315 C347.45899654 300.20688865 343.14415523 270.97822161 343.11352539 253.36254883 C343.11324261 251.05435691 343.11340303 248.74616489 343.1139679 246.43797302 C343.11425232 240.23267645 343.10841341 234.02739959 343.10139394 227.82210755 C343.09510088 221.3145675 343.09455192 214.80702688 343.09336853 208.29948425 C343.09062338 197.39667412 343.08439667 186.49387119 343.07543945 175.59106445 C343.06623158 164.37133825 343.05916735 153.151614 343.05493164 141.93188477 C343.05466892 141.23791955 343.05440619 140.54395433 343.05413551 139.82895986 C343.05283028 136.34682925 343.05156662 132.86469863 343.05032361 129.382568 C343.03999141 100.58837395 343.02233335 71.79418715 343 43 C342.24689545 44.71720497 342.24689545 44.71720497 341.47857666 46.46910095 C339.57375882 50.81207434 337.66833803 55.15478299 335.76275635 59.49742126 C334.94594744 61.3590664 334.12929127 63.22077856 333.31280518 65.08256531 C327.82682969 77.59156077 322.30897884 90.08577937 316.75 102.5625 C316.0505315 104.13334966 315.35112463 105.70422678 314.65177917 107.27513123 C314.34021976 107.9749282 314.02866034 108.67472517 313.70765972 109.39572811 C309.83291078 118.10294669 305.99945681 126.82763308 302.1875 135.5625 C296.76199215 147.9937455 291.29724947 160.40727746 285.8125 172.8125 C285.41236694 173.71757294 285.01223389 174.62264587 284.59997559 175.55514526 C282.1427398 181.11285906 279.68473186 186.6702311 277.22644043 192.22747803 C273.62916827 200.35956162 270.03277604 208.49203371 266.4375 216.625 C266.04513153 217.51243896 265.65276306 218.39987793 265.24850464 219.31420898 C260.95312538 229.03047049 256.66626166 238.75035461 252.40234375 248.48046875 C252.02651154 249.338078 251.65067932 250.19568726 251.26345825 251.07928467 C249.76194288 254.50590777 248.26048989 257.93255818 246.75927734 261.35931396 C240.85942562 274.82167343 234.87737644 288.2457644 228.85787964 301.65499878 C223.44459136 313.7171918 218.12886316 325.81347044 213 338 C208.71 338 204.42 338 200 338 C192.66026574 324.11881074 186.58559999 309.69216094 180.4074707 295.27099609 C177.65500648 288.8742024 174.80228389 282.53961944 171.8125 276.25 C169.02199266 270.32906731 166.42166808 264.34181564 163.875 258.3125 C160.2675468 249.78593592 156.42663891 241.38398141 152.5 233 C148.2285036 223.87609846 144.09157306 214.71877582 140.16748047 205.44042969 C137.72749846 199.6752317 135.20810685 193.95246942 132.625 188.25 C129.28472533 180.87501746 126.00090451 173.47731413 122.75 166.0625 C118.58289213 156.56464466 114.36978843 147.08831854 110.125 137.625 C109.5897168 136.43140869 109.05443359 135.23781738 108.50292969 134.00805664 C106.17982985 128.83424385 103.84846476 123.66481583 101.48828125 118.5078125 C98.86551022 112.74629832 96.36535584 106.93386915 93.86593628 101.11801147 C87.27376919 85.79104147 80.44541109 70.57614501 73.53295898 55.39135742 C72.31381356 52.69424816 71.10543835 49.99312776 69.90419006 47.28804016 C69.54677262 46.48332936 69.18935518 45.67861856 68.82110691 44.84952259 C68.55014163 44.23918014 68.27917635 43.62883768 68 43 C67.97652102 68.96706001 67.95894778 94.93411841 67.94818783 120.90118694 C67.94305648 132.96122787 67.93607488 145.02126216 67.92456055 157.08129883 C67.91451622 167.60678052 67.90812366 178.1322574 67.90591151 188.65774375 C67.90462076 194.21818725 67.90164081 199.77861698 67.89426994 205.33905602 C63.67446358 261.08515246 63.67446358 261.08515246 82.8125 309.875 C93.29898208 319.68493485 106.07017352 322.62985313 120 324 C123.30823887 327.30823887 121 333.32144372 121 338 C81.07 338 41.14 338 0 338 C0 325 0 325 1 324 C3.07997826 323.7234711 5.1643308 323.47969925 7.25 323.25 C21.22753233 321.30394113 34.346861 315.60591443 43.35806561 304.38854122 C48.50413163 296.90249862 50.85878235 288.20867109 51.78979492 279.27905273 C51.90717357 278.19451781 52.02455221 277.10998289 52.14548779 275.99258327 C53.90462834 257.07186942 53.41615657 237.95904394 53.37004495 218.97856069 C53.35857249 213.1379241 53.3628497 207.29729442 53.36479187 201.45664978 C53.36566944 191.66402282 53.35470382 181.8714658 53.33618164 172.07885742 C53.31498086 160.80653345 53.31151626 149.53431142 53.3177436 138.26197153 C53.32346345 127.3429787 53.31776348 116.42402123 53.30657005 105.50503349 C53.30196289 100.89031752 53.30103312 96.27562346 53.3031559 91.66090584 C53.30505774 86.21953736 53.29679134 80.77827076 53.2810955 75.33692551 C53.27690184 73.35660537 53.27596829 71.3762748 53.27878571 69.39595222 C53.29043612 59.73204391 53.08771633 50.16191633 52.12736511 40.5400238 C52.01517528 39.37799725 52.01517528 39.37799725 51.90071899 38.19249541 C51.0919346 30.9732341 49.11249028 24.91100028 43.70703125 19.85546875 C35.08988067 13.94905241 23.30020492 14.70904035 13.28515625 15.02246094 C12.42792969 15.04469727 11.57070312 15.06693359 10.6875 15.08984375 C9.54861328 15.13419556 9.54861328 15.13419556 8.38671875 15.17944336 C6 15 6 15 0 13 C0 8.71 0 4.42 0 0 Z " fill="#FFFFFF" transform="translate(1085,219)"/>
<path d="M0 0 C1.14947585 0.00092179 2.2989517 0.00184359 3.48326015 0.00279331 C4.79724285 0.00141865 6.11122555 0.00004398 7.4650259 -0.00137234 C8.93484424 0.00216728 10.40466235 0.0058021 11.87448025 0.00952244 C13.411554 0.0098043 14.94862789 0.0096466 16.48570156 0.00907993 C20.67147095 0.00879192 24.85721194 0.01468931 29.04297471 0.02165389 C33.41254392 0.02788674 37.7821137 0.02849117 42.15168667 0.0296793 C50.43191283 0.03279282 58.71212586 0.04100648 66.99234623 0.05102879 C76.41661395 0.06218929 85.84088228 0.06770021 95.26515496 0.07272422 C114.65699176 0.08318908 134.04881552 0.10098932 153.44064236 0.12304783 C153.44064236 4.74304783 153.44064236 9.36304783 153.44064236 14.12304783 C147.24216641 14.80233286 141.24006852 15.15699514 135.00314236 15.06054783 C125.68743138 15.01316374 116.00409652 15.13531328 108.44064236 21.12304783 C97.12630663 36.5419533 101.28507479 64.39588404 101.26705837 82.30590916 C101.26128918 85.03290158 101.25403202 87.75988952 101.2467947 90.4868784 C101.23195011 96.33442266 101.22036309 102.18196575 101.2108469 108.02952099 C101.19686407 116.51320745 101.17565996 124.99686521 101.15241837 133.48053082 C101.11460528 147.28803948 101.07962389 161.09555332 101.04782009 174.90307713 C101.04496935 176.13942564 101.04496935 176.13942564 101.04206102 177.4007509 C101.01527969 189.07428608 100.99138476 200.74782537 100.96867602 212.4213691 C100.96707872 213.24226634 100.96548142 214.06316358 100.96383572 214.9089365 C100.96224225 215.7288128 100.96064878 216.54868909 100.95900703 217.39341012 C100.9320935 231.14066923 100.89763674 244.88789756 100.85718197 258.63512343 C100.83262617 267.07967593 100.81417873 275.52419565 100.80402636 283.96877798 C100.79654609 289.77402095 100.78188939 295.57921968 100.76196212 301.38443313 C100.75075031 304.71543672 100.74353167 308.04630993 100.74297047 311.37734127 C100.7298692 354.45441564 98.68648466 394.02783866 67.44064236 426.49804783 C59.91560659 433.71002355 51.6530773 438.68012556 42.50314236 443.56054783 C41.24062649 444.23537205 41.24062649 444.23537205 39.95260525 444.92382908 C39.15588406 445.3389072 38.35916286 445.75398533 37.53829861 446.18164158 C36.82166042 446.55603367 36.10502224 446.93042576 35.36666775 447.31616306 C33.44064236 448.12304783 33.44064236 448.12304783 30.44064236 448.12304783 C30.11064236 448.78304783 29.78064236 449.44304783 29.44064236 450.12304783 C24.21108495 451.8453154 18.8163556 452.95109679 13.44064236 454.12304783 C12.75743923 454.27983006 12.07423611 454.43661228 11.37032986 454.59814548 C-10.15712704 459.3929917 -36.15176575 459.54047925 -57.55935764 454.12304783 C-58.24578342 453.95675877 -58.93220921 453.7904697 -59.63943577 453.61914158 C-69.46148377 451.17944244 -77.52363912 447.40424265 -85.55935764 441.12304783 C-86.39338108 440.48238377 -87.22740452 439.8417197 -88.08670139 439.18164158 C-95.32708605 433.2182632 -100.99104347 425.53293287 -102.55935764 416.12304783 C-103.33067168 406.27674204 -102.98853996 397.85550725 -96.79373264 389.83789158 C-91.71568016 384.33000394 -87.12509927 381.55494231 -79.66873264 380.84961033 C-70.73466278 380.55779398 -63.80033248 382.07358055 -57.16873264 388.27929783 C-51.4869758 394.78849499 -49.80682596 401.34387158 -50.11795139 409.88476658 C-50.68972013 414.07942393 -52.06186507 417.64982237 -53.64920139 421.55273533 C-55.03893132 425.47738037 -55.47494058 429.04004285 -54.55935764 433.12304783 C-50.69775569 438.91545076 -43.85414324 440.97116039 -37.36013889 442.71289158 C-18.25602026 445.51056586 0.67119526 442.5439081 16.44064236 431.12304783 C32.57532784 418.66678549 43.04478835 401.16218311 45.73214626 380.92822361 C48.35936738 359.55279939 48.59400242 338.09879322 48.58602607 316.59210837 C48.58581873 313.09031744 48.5913718 309.58853429 48.59608364 306.08674717 C48.60431796 299.25509963 48.60713512 292.42346072 48.60769602 285.59180862 C48.60817436 280.03134784 48.61024479 274.47088985 48.61339664 268.91042995 C48.6221812 253.08708718 48.62681913 237.26375114 48.62606617 221.44040591 C48.62602621 220.59100245 48.62598626 219.74159899 48.62594509 218.86645603 C48.62588377 217.59076643 48.62588377 217.59076643 48.62582121 216.28930532 C48.6254147 202.5051845 48.63499119 188.72109098 48.64908346 174.93697805 C48.66349537 160.7263356 48.6703511 146.51570644 48.66948968 132.30505651 C48.66915951 124.34965637 48.67182723 116.39428491 48.68266773 108.43889141 C48.69183616 101.66827268 48.69389629 94.89769565 48.68715831 88.12707336 C48.6839256 84.68337543 48.68371652 81.23975724 48.69251156 77.79606724 C48.71783368 65.64015667 48.69127889 53.51333242 47.67545986 41.39256382 C47.58429969 40.16786352 47.58429969 40.16786352 47.4912979 38.9184218 C46.79276186 31.87089486 44.60098138 25.73819507 40.06564236 20.24804783 C31.13900305 13.84656207 18.21400775 14.85451009 7.78829861 15.11523533 C3.89244723 15.18911476 0.27730607 14.78718402 -3.55935764 14.12304783 C-3.58621703 11.97728146 -3.60568852 9.83142138 -3.62185764 7.68554783 C-3.63345921 6.49058689 -3.64506077 5.29562595 -3.65701389 4.06445408 C-3.52770279 0.16960356 -3.52770279 0.16960356 0 0 Z " fill="#FFFFFF" transform="translate(755.5593576431274,218.87695217132568)"/>
<path d="M0 0 C1.70209074 0.00138269 1.70209074 0.00138269 3.43856716 0.00279331 C5.38429874 0.00073132 5.38429874 0.00073132 7.36933804 -0.00137234 C8.820266 0.00216728 10.27119373 0.0058021 11.72212124 0.00952244 C13.23949081 0.0098043 14.75686051 0.0096466 16.27423 0.00907993 C20.40628225 0.00879192 24.53830573 0.01468925 28.67035127 0.02165389 C32.98386602 0.02788681 37.29738136 0.02849118 41.61089993 0.0296793 C49.78487827 0.0327928 57.95884331 0.04100644 66.13281578 0.05102879 C75.43616679 0.06218935 84.73951842 0.06770023 94.04287446 0.07272422 C113.1858831 0.08318904 132.32887854 0.10098925 151.4718771 0.12304783 C151.4718771 4.74304783 151.4718771 9.36304783 151.4718771 14.12304783 C146.16318982 15.02769863 141.15819808 15.17331752 135.7843771 15.06054783 C121.08683476 14.67760285 121.08683476 14.67760285 108.4718771 21.12304783 C96.38175238 35.44832165 100.32353901 62.54377533 100.34248257 80.1679697 C100.34112395 82.31873193 100.33934145 84.46949391 100.33717251 86.62025547 C100.33265287 92.40740955 100.33436502 98.19454559 100.33755159 103.98169994 C100.34010368 110.07109338 100.33772978 116.16048538 100.33616543 122.24987888 C100.334352 132.47111377 100.3367283 142.69234139 100.341506 152.91357517 C100.34694702 164.68901033 100.34518378 176.46442818 100.3396796 188.23986292 C100.33512487 198.3949894 100.33450944 208.55011069 100.33711827 218.70523787 C100.33866809 224.75075565 100.33891062 230.79626532 100.33558178 236.84178257 C100.33266862 242.52842033 100.33474132 248.21503601 100.34047604 253.90167141 C100.34178531 255.97432449 100.34144118 258.04697947 100.33921337 260.11963177 C98.65513329 291.29347203 98.65513329 291.29347203 110.5968771 318.43554783 C119.05482748 323.39999697 129.09373122 323.74846945 138.6593771 324.31054783 C140.51659389 324.43333103 140.51659389 324.43333103 142.41133022 324.5585947 C145.43087011 324.75678844 148.45130013 324.94134292 151.4718771 325.12304783 C151.4718771 329.41304783 151.4718771 333.70304783 151.4718771 338.12304783 C131.41004344 338.14616519 111.34821353 338.16402621 91.28636932 338.17486 C81.97197994 338.1800233 72.65759897 338.18706664 63.34321499 338.19848728 C55.2278235 338.20843309 47.1124381 338.21490101 38.99704069 338.21713632 C34.69727922 338.21844361 30.39753518 338.22153057 26.09777927 338.22877789 C22.05544868 338.23553648 18.01314278 338.23766512 13.97080708 338.23615551 C12.48283536 338.23643191 10.99486287 338.23843799 9.50689602 338.2422533 C7.48412572 338.24718796 5.46134234 338.24544599 3.43856716 338.24330235 C2.30384 338.24422414 1.16911283 338.24514593 0 338.24609566 C-2.5281229 338.12304783 -2.5281229 338.12304783 -3.5281229 337.12304783 C-3.60056343 335.10340584 -3.61189478 333.08137659 -3.5906229 331.06054783 C-3.58159946 329.95582127 -3.57257603 328.8510947 -3.56327915 327.71289158 C-3.54587681 326.43091892 -3.54587681 326.43091892 -3.5281229 325.12304783 C-2.73228794 325.07817234 -1.93645298 325.03329685 -1.11650181 324.9870615 C2.53879671 324.77390212 6.19271566 324.54235527 9.8468771 324.31054783 C11.72439663 324.20516697 11.72439663 324.20516697 13.63984585 324.0976572 C24.55135031 323.38355351 34.98979035 322.23165878 42.6593771 313.68554783 C50.96359197 297.36347033 48.62206712 275.6423032 48.61714077 257.78027439 C48.62014006 255.58526649 48.62354434 253.39025912 48.62731838 251.19525242 C48.63608309 245.2818117 48.63849326 239.36838548 48.63913417 233.45493889 C48.63984883 229.74819447 48.64199095 226.04145364 48.64463139 222.33471012 C48.65433408 208.70121431 48.65789945 195.06772979 48.65705595 181.43423077 C48.65662458 170.0701107 48.66800777 158.70603361 48.6829235 147.34192395 C48.69605267 136.96426665 48.7013615 126.58662392 48.70072442 116.20895839 C48.70047107 110.03197219 48.703232 103.85502596 48.71390247 97.67804813 C48.72367483 91.86335654 48.72360088 86.04874242 48.71638584 80.23404789 C48.71535134 78.11750263 48.71763414 76.00095231 48.7237463 73.88441563 C48.75203231 63.39861337 48.53514653 53.01565722 47.5660696 42.56927586 C47.48644362 41.70578659 47.40681763 40.84229733 47.32477874 39.95264173 C46.53401461 32.28513564 45.00334201 26.25407022 40.0968771 20.18554783 C31.72170149 14.32500311 19.90081748 14.80064393 10.13325405 15.14526463 C5.13103689 15.29147272 1.21675545 14.74679448 -3.5281229 13.12304783 C-3.55498843 11.14395385 -3.57445666 9.16475812 -3.5906229 7.18554783 C-3.60222446 6.08339939 -3.61382603 4.98125095 -3.62577915 3.84570408 C-3.49394098 0.17005576 -3.49394098 0.17005576 0 0 Z " fill="#FFFFFF" transform="translate(920.5281229019165,218.87695217132568)"/>
</svg>
